<?xml version="1.0" encoding="iso-8859-1"?>
<!-- Uploaded to: SVG Repo, www.svgrepo.com, Generator: SVG Repo Mixer Tools -->
<svg fill="#000000" height="800px" width="800px" version="1.1" id="Capa_1" xmlns="http://www.w3.org/2000/svg" xmlns:xlink="http://www.w3.org/1999/xlink" 
	 viewBox="0 0 490.139 490.139" xml:space="preserve">
<g>
	<g>
		<path d="M229.069,0.098c-2.7-0.3-5.5,0.1-8,1c-4.9,1-9.3,3.8-12.3,8.4l-205.6,295.1c-3.1,5.3-3.1,10.8-3.1,11.5v153.3
			c0,14.1,6.7,23.9,26,19.8l447.4-73c9.3-1,16.6-9.4,16.6-19.8v-153.3C490.069,242.398,481.069,28.298,229.069,0.098z
			 M235.469,41.798c114.5,12.9,178.7,69.3,209.5,184.6l-380.5,62.5L235.469,41.798z M448.569,378.598l-407,66.7v-112.5l406.9-66.4
			v112.2H448.569z"/>
		<ellipse cx="346.769" cy="167.998" rx="21" ry="21.1"/>
		<ellipse cx="206.669" cy="206.598" rx="21" ry="21.1"/>
		<ellipse cx="264.769" cy="113.798" rx="21" ry="21.1"/>
	</g>
</g>
</svg>